<svg xmlns="http://www.w3.org/2000/svg" xmlns:xlink="http://www.w3.org/1999/xlink" xmlns:inkscape="http://www.inkscape.org/namespaces/inkscape" version="1.1" width="25.654mm" height="24.045mm" viewBox="0 0 72.72 68.16">
<defs>
<clipPath id="clip_1">
<path transform="matrix(1,0,0,-1,-383.5039,722.3939)" d="M383.5039 654.234H456.2239V722.394H383.5039Z"/>
</clipPath>
<clipPath id="clip_11">
<path transform="matrix(1,0,0,-1,-383.5039,722.3939)" d="M12.165 12.165H658.464V876.732H12.165Z"/>
</clipPath>
<clipPath id="clip_12">
<path transform="matrix(1,0,0,-1,-383.5039,722.3939)" d="M12.165 12.165H658.464V876.732H12.165Z"/>
</clipPath>
<clipPath id="clip_13">
<path transform="matrix(1,0,0,-1,-383.5039,722.3939)" d="M12.165 12.165H658.464V876.732H12.165Z"/>
</clipPath>
<clipPath id="clip_15">
<path transform="matrix(1,0,0,-1,-383.50395,722.3939)" d="M12.165 12.165H658.464V876.732H12.165Z"/>
</clipPath>
<clipPath id="clip_17">
<path transform="matrix(1,0,0,-1,-383.50395,722.3939)" d="M12.165 12.165H658.464V876.732H12.165Z"/>
</clipPath>
<clipPath id="clip_2">
<path transform="matrix(1,0,0,-1,-383.5039,722.3939)" d="M23.5039 23.504H647.126V865.394H23.5039Z"/>
</clipPath>
<clipPath id="clip_22">
<path transform="matrix(1,0,0,-1,-383.50395,722.3939)" d="M94.37 666.138C94.37 666.138 88.701 666.138 88.701 660.469V375.63C88.701 375.63 88.701 369.96 94.37 369.96H319.725C319.725 369.96 325.394 369.96 325.394 375.63V660.469C325.394 660.469 325.394 666.138 319.725 666.138Z"/>
</clipPath>
<clipPath id="clip_25">
<path transform="matrix(1,0,0,-1,-383.50395,722.3939)" d="M245.097 595.741H314.055V654.263H245.097Z"/>
</clipPath>
<clipPath id="clip_27">
<path transform="matrix(1,0,0,-1,-383.50395,722.3939)" d="M245.097 595.741H314.055V654.263H245.097Z"/>
</clipPath>
<clipPath id="clip_28">
<path transform="matrix(1,0,0,-1,-383.50395,722.3939)" d="M94.37 666.138C94.37 666.138 88.701 666.138 88.701 660.469V375.63C88.701 375.63 88.701 369.96 94.37 369.96H319.725C319.725 369.96 325.394 369.96 325.394 375.63V660.469C325.394 660.469 325.394 666.138 319.725 666.138Z"/>
</clipPath>
<clipPath id="clip_3">
<path transform="matrix(1,0,0,-1,-383.5039,722.3939)" d="M12.1654 12.1654H658.465V876.732H12.1654Z"/>
</clipPath>
<clipPath id="clip_30">
<path transform="matrix(1,0,0,-1,-383.50395,722.3939)" d="M12.165 12.165H658.464V876.732H12.165Z"/>
</clipPath>
<clipPath id="clip_31">
<path transform="matrix(1,0,0,-1,-383.50395,722.3939)" d="M385.488 656.568H453.891V718.355H385.488Z"/>
</clipPath>
<clipPath id="clip_33">
<path transform="matrix(1,0,0,-1,-383.50395,722.3939)" d="M385.488 656.568H453.891V718.355H385.488Z"/>
</clipPath>
<clipPath id="clip_34">
<path transform="matrix(1,0,0,-1,-383.50395,722.3939)" d="M385.488 656.568H453.891V718.355H385.488Z"/>
</clipPath>
<clipPath id="clip_35">
<path transform="matrix(1,0,0,-1,-383.50395,722.3939)" d="M503.551 660.916H570.004V718.35507H503.551Z"/>
</clipPath>
<clipPath id="clip_36">
<path transform="matrix(1,0,0,-1,-383.50395,722.3939)" d="M503.551 660.916H570.004V718.35507H503.551Z"/>
</clipPath>
<clipPath id="clip_37">
<path transform="matrix(1,0,0,-1,-383.50395,722.3939)" d="M385.488 497.402H456.625V551.481H385.488Z"/>
</clipPath>
<clipPath id="clip_39">
<path transform="matrix(1,0,0,-1,-383.50395,722.3939)" d="M385.488 497.402H456.625V551.481H385.488Z"/>
</clipPath>
<clipPath id="clip_4">
<path transform="matrix(1,0,0,-1,-383.5039,722.3939)" d="M12.1654 12.1654H658.465V876.732H12.1654Z"/>
</clipPath>
<clipPath id="clip_41">
<path transform="matrix(1,0,0,-1,-383.50395,722.3939)" d="M385.488 497.402H456.625V551.481H385.488Z"/>
</clipPath>
<clipPath id="clip_42">
<path transform="matrix(1,0,0,-1,-383.50395,722.3939)" d="M503.551 495.524H580.871V551.48098H503.551Z"/>
</clipPath>
<clipPath id="clip_44">
<path transform="matrix(1,0,0,-1,-383.50395,722.3939)" d="M503.551 495.524H580.871V551.48098H503.551Z"/>
</clipPath>
<clipPath id="clip_45">
<path transform="matrix(1,0,0,-1,-383.50395,722.3939)" d="M503.551 495.524H580.871V551.48098H503.551Z"/>
</clipPath>
<clipPath id="clip_46">
<path transform="matrix(1,0,0,-1,-383.50398,722.3939)" d="M12.165 12.165H658.464V876.732H12.165Z"/>
</clipPath>
<clipPath id="clip_47">
<path transform="matrix(1,0,0,-1,-383.50398,722.3939)" d="M12.165 12.165H658.464V876.732H12.165Z"/>
</clipPath>
<clipPath id="clip_48">
<path transform="matrix(1,0,0,-1,-383.50398,722.3939)" d="M385.488 265.865H458.564V324.586H385.488Z"/>
</clipPath>
<clipPath id="clip_49">
<path transform="matrix(1,0,0,-1,-383.50398,722.3939)" d="M385.488 265.865H458.564V324.586H385.488Z"/>
</clipPath>
<clipPath id="clip_5">
<path transform="matrix(1,0,0,-1,-383.5039,722.3939)" d="M339.311 817.205C365.925 817.205 387.5 838.78 387.5 865.394 387.5 892.008 365.925 913.583 339.311 913.583 312.697 913.583 291.122 892.008 291.122 865.394 291.122 838.78 312.697 817.205 339.311 817.205"/>
</clipPath>
<clipPath id="clip_50">
<path transform="matrix(1,0,0,-1,-383.50398,722.3939)" d="M503.551 266.799H573.159V324.586H503.551Z"/>
</clipPath>
<clipPath id="clip_52">
<path transform="matrix(1,0,0,-1,-383.50398,722.3939)" d="M503.551 266.799H573.159V324.586H503.551Z"/>
</clipPath>
<clipPath id="clip_53">
<path transform="matrix(1,0,0,-1,-383.50398,722.3939)" d="M385.488 106.817H457.709V160.779H385.488Z"/>
</clipPath>
<clipPath id="clip_54">
<path transform="matrix(1,0,0,-1,-383.50398,722.3939)" d="M385.488 106.817H457.709V160.779H385.488Z"/>
</clipPath>
<clipPath id="clip_55">
<path transform="matrix(1,0,0,-1,-383.50398,722.3939)" d="M503.551 98.77H564.523V160.78H503.551Z"/>
</clipPath>
<clipPath id="clip_57">
<path transform="matrix(1,0,0,-1,-383.50398,722.3939)" d="M503.551 98.77H564.523V160.78H503.551Z"/>
</clipPath>
<clipPath id="clip_58">
<path transform="matrix(1,0,0,-1,-383.50398,722.3939)" d="M255.68 234.949H325.39399V298.695H255.68Z"/>
</clipPath>
<clipPath id="clip_6">
<path transform="matrix(1,0,0,-1,-383.5039,722.3939)" d="M12.1654 12.1654H658.465V876.732H12.1654Z"/>
</clipPath>
<clipPath id="clip_60">
<path transform="matrix(1,0,0,-1,-383.50398,722.3939)" d="M255.68 234.949H325.39399V298.695H255.68Z"/>
</clipPath>
<clipPath id="clip_62">
<path transform="matrix(1,0,0,-1,-383.50398,722.3939)" d="M12.165 12.165H658.464V876.732H12.165Z"/>
</clipPath>
<clipPath id="clip_63">
<path transform="matrix(1,0,0,-1,-383.50398,722.3939)" d="M0 0H670.63V888.898H0Z"/>
</clipPath>
<clipPath id="clip_65">
<path transform="matrix(1,0,0,-1,-383.50398,722.3939)" d="M0 0H670.63V888.898H0Z"/>
</clipPath>
<clipPath id="clip_7">
<path transform="matrix(1,0,0,-1,-383.5039,722.3939)" d="M325.612 806.955H353.805V840.22207H325.612Z"/>
</clipPath>
<path id="font_19_12" d="M.5 .20701599C.5 .2939148 .44898988 .3408966 .4099884 .36689759 .44599916 .39189149 .48999024 .4388733 .48999024 .51483157 .48999024 .6407623 .3909912 .71777346 .27198792 .71777346 .15299988 .71777346 .052993776 .6407623 .052993776 .51483157 .052993776 .4388733 .09700012 .39189149 .1329956 .36689759 .09399414 .3408966 .04399109 .2939148 .04399109 .20701599 .04399109 .06913757 .1459961-.005859375 .27198792-.005859375 .397995-.005859375 .5 .06913757 .5 .20701599M.36999513 .2090149C.36999513 .15408325 .32699586 .11112976 .27198792 .11112976 .21699524 .11112976 .17399597 .15408325 .17399597 .2090149 .17399597 .26394654 .21699524 .30789186 .27198792 .30789186 .32699586 .30789186 .36999513 .26394654 .36999513 .2090149M.3600006 .51083377C.3600006 .4588623 .32299806 .42089845 .27198792 .42089845 .22099304 .42089845 .18299866 .4588623 .18299866 .51083377 .18299866 .5617981 .22099304 .60076907 .27198792 .60076907 .32299806 .60076907 .3600006 .5617981 .3600006 .51083377Z"/>
<path id="font_19_13" d="M.49499513 .49795533C.49499513 .6387634 .39898683 .71777346 .272995 .71777346 .14698792 .71777346 .050994874 .6357727 .050994874 .49595643 .050994874 .364151 .14299011 .28515626 .23899842 .28515626 .2559967 .28515626 .2749939 .28715516 .2919922 .29414369L.14399719 0H.2849884L.43598939 .30815126C.46798707 .3731537 .49499513 .43307496 .49499513 .49795533M.36499024 .4969635C.36499024 .43107606 .32598878 .3931427 .272995 .3931427 .21798706 .3931427 .18099976 .43406678 .18099976 .4969635 .18099976 .5628357 .21998596 .60076907 .272995 .60076907 .32598878 .60076907 .36499024 .5628357 .36499024 .4969635Z"/>
<path id="font_19_4" d="M.48799134 .20606995V.5058441C.48799134 .6417694 .3880005 .71777346 .27198792 .71777346 .1559906 .71777346 .054992677 .6417694 .054992677 .5058441V.20606995C.054992677 .070129398 .1559906-.005859375 .27198792-.005859375 .3880005-.005859375 .48799134 .070129398 .48799134 .20606995M.35798646 .20706177C.35798646 .14710999 .32398988 .11112976 .27198792 .11112976 .21998596 .11112976 .18499756 .14710999 .18499756 .20706177V.5038452C.18499756 .563797 .21998596 .60076907 .27198792 .60076907 .32398988 .60076907 .35798646 .563797 .35798646 .5038452V.20706177Z"/>
<path id="font_26_21" d="M.46199037 .18099976H.3659973V.6489868H.33399964L.04499817 .1769867V.14099121H.2899933V.056991579C.2899933 .040985109 .28199769 .0289917 .2669983 .021987915 .25099183 .01499939 .22799683 .010986328 .19898987 .010986328V-.018005372H.44499208V.010986328C.43598939 .010986328 .42599488 .010986328 .4169922 .011993408 .40699769 .0129852299 .397995 .01399231 .3909912 .016998291 .38398744 .018997193 .37799073 .021987915 .37298585 .026992798 .36799623 .0309906 .3659973 .036987306 .3659973 .04499817V.14099121H.46199037V.18099976M.084991458 .18099976 .2899933 .5179901V.18099976H.084991458Z"/>
<path id="font_26_3" d=""/>
<path id="font_26_34" d="M.82299807-.0040130617C.7939911-.0040130617 .769989 .0019989014 .75 .01499939 .72898867 .026992798 .71499636 .042999269 .70799258 .06298828L.46299745 .74398806 .3789978 .71499636 .15699768 .07499695C.15299988 .06399536 .147995 .053985597 .14299011 .04499817 .13699341 .034988405 .1289978 .025985718 .11999512 .018997193 .10998535 .011993408 .09799194 .005996704 .08299255 .0009918213 .067993167-.0040130617 .049987794-.006011963 .0289917-.006011963V-.039001466H.29599V-.006011963C.28599549-.006011963 .27398683-.0040130617 .26098634-.0010070801 .24798584 .0019989014 .23599243 .0079956059 .22499085 .01499939 .21398926 .021987915 .20498657 .0309906 .19999695 .041992189 .19400025 .052993776 .19400025 .06599426 .19898987 .08099365L.24598694 .22499085H.55599978L.61299136 .055999757C.61698916 .042999269 .6159973 .03199768 .60899356 .024993897 .60198977 .016998291 .59298709 .010986328 .58200076 .0069885256 .57099917 .0019989014 .5589905-.0010070801 .54599-.0020141602 .5329895-.0040130617 .5219879-.005004883 .5130005-.006011963V-.039001466H.82299807V-.0040130617M.25898744 .26098634 .39898683 .6609955 .5439911 .26098634H.25898744Z"/>
<path id="font_26_35" d="M.6669922 .23599243C.6539917 .2579956 .6380005 .27799989 .61698916 .2939911 .59599307 .30999757 .57099917 .32398988 .54299929 .33399964 .5139923 .34498597 .48399354 .35299684 .45298768 .35699464 .47399903 .36299134 .49598695 .37098695 .5189972 .3809967 .5419922 .3909912 .5629883 .4039917 .58200076 .4189911 .6009979 .43399049 .61698916 .45199586 .6299896 .47200013 .6429901 .49198915 .6489868 .5149994 .6489868 .54100039 .6489868 .5649872 .6439972 .58699038 .6329956 .6069946 .621994 .6279907 .6049957 .644989 .58399966 .6599884 .5629883 .6749878 .5359955 .68699648 .5049896 .69499209 .47299195 .70399478 .43699647 .70799258 .3959961 .70799258H.0309906V.6759949C.069992069 .6759949 .09700012 .6729889 .11199951 .66600039 .12599182 .6599884 .1329956 .6459961 .1329956 .6239929V.036987306C.1329956 .023986817 .12599182 .01399231 .11099243 .005996704 .09599304-.0030059815 .067993167-.007003784 .0289917-.007003784V-.039001466H.3889923C.42599488-.039001466 .46299745-.036010744 .49899293-.030014039 .5339966-.023010254 .56599429-.013000488 .59399417 .0019989014 .62098696 .016998291 .6429901 .037994386 .6599884 .06298828 .6769867 .08898926 .68499758 .12098694 .68499758 .1599884 .68499758 .18798828 .67900088 .21299744 .6669922 .23599243M.522995 .44999696C.5099945 .42799378 .49198915 .41099549 .47099305 .3999939 .44898988 .3880005 .4249878 .37998963 .397995 .37599183 .37098695 .37199403 .34298707 .36999513 .31599427 .36999513H.22999573V.61499026C.22999573 .625 .23199463 .6349945 .23599243 .6429901 .23899842 .6519928 .24699402 .6589966 .2579956 .6639862 .2689972 .6689911 .28399659 .6729889 .3039856 .6759949 .32398988 .67900088 .34999085 .68099978 .38198854 .68099978 .4149933 .68099978 .44299317 .6759949 .46398927 .6669922 .4850006 .6579895 .5009918 .6469879 .5130005 .6319885 .5239868 .6179962 .5319977 .60198977 .5369873 .58399966 .54100039 .5669861 .54299929 .5499878 .54299929 .5329895 .54299929 .49899293 .5359955 .47099305 .522995 .44999696M.56799319 .084991458C.5589905 .06399536 .54599 .04598999 .5309906 .032989503 .5159912 .018997193 .49798585 .008987427 .47898866 .0029907227 .45899964-.0040130617 .43899537-.007003784 .41799928-.007003784 .37399293-.007003784 .33999635-.006011963 .31498719-.005004883 .2899933-.0040130617 .2709961 0 .25898744 .004989624 .24598694 .009994507 .23799134 .016998291 .23498535 .025985718 .23199463 .034988405 .22999573 .04798889 .22999573 .06399536V.33799745H.37098695C.3939972 .33799745 .4189911 .33599855 .44400025 .33099366 .46899415 .32699586 .4909973 .31900025 .5119934 .30599977 .5319977 .29299928 .548996 .2749939 .56199648 .2519989 .57499697 .22898865 .58200076 .19898987 .58200076 .1599884 .58200076 .1309967 .57699587 .10598755 .56799319 .084991458Z"/>
<path id="font_26_36" d="M.6409912 .18899536C.6329956 .1749878 .621994 .1579895 .60899356 .13699341 .59498599 .115997318 .5779877 .09700012 .55799868 .07798767 .5379944 .05899048 .5149994 .042999269 .48799134 .02999878 .46099855 .016998291 .42900086 .009994507 .3939972 .009994507 .35899354 .009994507 .32798768 .015991211 .30099488 .026992798 .27398683 .037994386 .25099183 .052993776 .23199463 .07199097 .21199036 .08999634 .19599915 .11099243 .18299866 .1349945 .16999817 .15899658 .15899658 .18399048 .1519928 .20899964 .14399719 .23399353 .13798523 .25898744 .1349945 .2829895 .13198853 .30699159 .12998963 .32899476 .12998963 .34999085 .12998963 .38198854 .13398743 .41799928 .14099121 .45799256 .147995 .49699403 .16099549 .5339966 .17999268 .56900027 .19799805 .60398867 .22200012 .6329956 .25299073 .6559906 .28399659 .67900088 .32199098 .69099429 .36898805 .69099429 .39898683 .69099429 .42799378 .6839905 .45498658 .67099 .48199464 .6569977 .5059967 .6409912 .5279999 .6230011 .548996 .60398867 .56799319 .58599856 .58299258 .5669861 .59799197 .5479889 .60899356 .5339966 .6159973 .5239868L.6419983 .5369873 .5669861 .7299957C.55599978 .72499087 .54599 .71899417 .5389862 .71299746 .5309906 .70700076 .5219879 .70399478 .5130005 .70199587 .5059967 .69999697 .49798585 .70098879 .48799134 .70199587 .47799684 .70399478 .46598817 .70599368 .45199586 .70799258 .43798829 .71099856 .42199708 .71398928 .4039917 .71598818 .38598634 .71899417 .3659973 .7200012 .34298707 .7200012 .31098939 .7200012 .2769928 .71199038 .24099732 .69499209 .20399475 .6779938 .16999817 .6519928 .13899231 .6179962 .10798645 .58399966 .08198547 .5419922 .06098938 .49198915 .039993287 .44198609 .02999878 .38398744 .02999878 .31799317 .02999878 .27198792 .037994386 .22698975 .052993776 .18299866 .067993167 .13899231 .08999634 .099990848 .11898804 .06599426 .147995 .0309906 .18299866 .0029907227 .22499085-.018005372 .2659912-.039001466 .31399537-.05000305 .36799623-.05000305 .40699769-.05000305 .44198609-.043014528 .47499085-.029006958 .5069885-.015014648 .5359955 .0029907227 .56199648 .024993897 .58699038 .04598999 .60899356 .069992069 .6269989 .09599304 .644989 .12199402 .6589966 .14698792 .66799929 .16999817L.6409912 .18899536Z"/>
<path id="font_26_37" d="M.7200012 .49899293C.69898989 .54499819 .6719971 .58299258 .6389923 .6139984 .60598757 .644989 .5669861 .66799929 .5239868 .6839905 .48098756 .69898989 .43699647 .70700076 .3919983 .70700076H.0289917V.6749878C.068984989 .6749878 .09700012 .6719971 .11299133 .66600039 .1289978 .6599884 .13699341 .6459961 .13699341 .625V.04399109C.13699341 .036987306 .13699341 .02999878 .13598633 .024993897 .1349945 .018997193 .13198853 .01399231 .12599182 .009994507 .11898804 .005996704 .10899353 .0029907227 .09498596 .0009918213 .08099365-.0010070801 .06098938-.0020141602 .033996583-.0020141602V-.039001466H.36499024C.41600038-.039001466 .46398927-.03100586 .5109863-.014007568 .5569916 .0019989014 .59799197 .025985718 .6339874 .057998659 .6689911 .08999634 .69799807 .1289978 .71899417 .17599488 .73999026 .22299195 .7509918 .2769928 .7509918 .33799745 .7509918 .39898683 .7409973 .45199586 .7200012 .49899293M.36698915-.005004883C.33599855-.005004883 .31298829-.0040130617 .29599-.0010070801 .2789917 .0019989014 .2659912 .005996704 .2579956 .010986328 .24899292 .015991211 .24398804 .022994996 .24299622 .02999878 .24099732 .036987306 .23999024 .04598999 .23999024 .054992677V.61299136C.23999024 .6259918 .24198914 .6359863 .24499512 .6439972 .24798584 .6529999 .25498963 .6589966 .2649994 .6639862 .27398683 .6689911 .2869873 .6729889 .3039856 .6749878 .32099916 .6759949 .34298707 .6769867 .36999513 .6769867 .40899659 .6769867 .44499208 .6719971 .47799684 .6609955 .5109863 .6499939 .5389862 .6319885 .5629883 .60598757 .58599856 .5799866 .6049957 .54499819 .6179962 .5009918 .6309967 .45700074 .6380005 .40098573 .6380005 .33399964 .6380005 .10798645 .5479889-.005004883 .36698915-.005004883Z"/>
<path id="font_26_48" d="M.68699648 .47799684C.66999819 .5249939 .6469879 .56599429 .61698916 .6029968 .58699038 .6389923 .5509949 .66799929 .5089874 .6899872 .46699525 .71099856 .41999818 .7220001 .36898805 .7220001 .31799317 .7220001 .27198792 .71099856 .23098755 .6879883 .18899536 .6649933 .15299988 .6359863 .12298584 .598999 .09298706 .56199648 .069992069 .5189972 .053985597 .47200013 .036987306 .42399598 .0289917 .375 .0289917 .32499696 .0289917 .2749939 .037994386 .22698975 .054992677 .18199158 .07199097 .13699341 .09498596 .09700012 .12599182 .06298828 .15699768 .0289917 .19299317 .0019989014 .23599243-.018005372 .27799989-.039001466 .32499696-.04901123 .37599183-.04901123 .4269867-.04901123 .47299195-.038009645 .5139923-.01701355 .5549927 .0039978029 .59098818 .03199768 .6199951 .066986087 .6489868 .101989749 .67099 .14299011 .68699648 .18899536 .7029877 .23399353 .71099856 .28199769 .71099856 .33099366 .71099856 .38198854 .7029877 .43099977 .68699648 .47799684M.58898928 .19699097C.5779877 .15299988 .56199648 .115997318 .5419922 .083999637 .5219879 .052993776 .49798585 .027999878 .46998597 .009994507 .44099427-.008010864 .4099884-.01701355 .37599183-.01701355 .33599855-.01701355 .30099488-.008010864 .2709961 .009994507 .24099732 .026992798 .21598816 .051986696 .19699097 .08299255 .1769867 .11399841 .1619873 .1499939 .1519928 .19299317 .14199829 .23498535 .13699341 .27999879 .13699341 .32899476 .13699341 .3789978 .14199829 .42599488 .1519928 .46998597 .1619873 .5149994 .1769867 .5529938 .19699097 .58499148 .21699524 .6179962 .24198914 .6429901 .272995 .6619873 .30299378 .68099978 .33799745 .6899872 .3789978 .6899872 .41999818 .6899872 .45399476 .68099978 .48298646 .6619873 .5119934 .6439972 .5349884 .61898806 .55400088 .58799746 .57199099 .55599978 .58499148 .5189972 .59399417 .47599793 .60198977 .43399049 .60598757 .3880005 .60598757 .33898927 .60598757 .28799439 .59999087 .23999024 .58898928 .19699097Z"/>
<path id="font_26_68" d="M.45498658 .08898926C.45199586 .085998538 .44599916 .07899475 .43699647 .068984989 .42799378 .05899048 .4169922 .04899597 .40299989 .038986207 .3880005 .027999878 .37098695 .018997193 .35099793 .010986328 .33099366 .0029907227 .30799867-.0010070801 .28199769-.0010070801 .25498963-.0010070801 .23098755 .004989624 .20999146 .017990113 .18899536 .02999878 .17199707 .04598999 .15899658 .06498718 .14498902 .083999637 .1349945 .10499573 .12799073 .12799073 .12098694 .15098572 .116989139 .17399597 .116989139 .19699097 .116989139 .23199463 .12098694 .2630005 .12799073 .2919922 .1349945 .32099916 .14498902 .34498597 .1579895 .3659973 .17098999 .38598634 .18798828 .4019928 .20698548 .41299439 .22599793 .42399598 .24699402 .42900086 .2709961 .42900086 .2849884 .42900086 .29699708 .42599488 .30599977 .42099 .31498719 .4149933 .32199098 .4079895 .32699586 .3999939 .33198548 .3919983 .33699037 .38398744 .34098817 .37599183 .34399415 .36698915 .34799195 .3600006 .35099793 .35398866 .35598756 .34498597 .3639984 .33799745 .37399293 .33099366 .3829956 .32398988 .3929901 .32099916 .40299989 .32099916 .40899659 .32099916 .4149933 .32299806 .42099 .32598878 .42599488 .32899476 .43199159 .33299256 .43699647 .33799745 .44198609 .34298707 .44599916 .34799195 .44898988 .35398866 .45199586 .3600006 .45298768 .3659973 .45298768 .37298585 .45298768 .37599183 .45098878 .3829956 .44599916 .3929901 .44099427 .40299989 .43299867 .4139862 .41999818 .4249878 .40699769 .43598939 .3899994 .44499208 .36698915 .45399476 .34399415 .46199037 .31399537 .46598817 .27799989 .46598817 .2519989 .46598817 .22499085 .45999146 .19599915 .44898988 .16699219 .43699647 .13999939 .4189911 .115997318 .3959961 .09098816 .37298585 .070999149 .34298707 .054992677 .30699159 .037994386 .2709961 .02999878 .22898865 .02999878 .17999268 .02999878 .13999939 .036987306 .10598755 .051986696 .07699585 .066986087 .04798889 .084991458 .023986817 .10798645 .004989624 .12998963-.014007568 .1539917-.028015137 .17999268-.037002565 .20498657-.04600525 .22898865-.05101013 .25099183-.05101013 .28399659-.05101013 .31399537-.04701233 .33999635-.038009645 .3659973-.029006958 .3880005-.018005372 .40699769-.005004883 .4249878 .0079956059 .43998719 .021987915 .45098878 .036987306 .46199037 .051986696 .46899415 .06498718 .47299195 .07798767L.45498658 .08898926Z"/>
<path id="font_26_78" d="M.8789978-.010009766C.8619995-.010009766 .84799197-.008010864 .83898928-.0040130617 .82899478 0 .82199099 .004989624 .81700137 .011993408 .81199648 .018997193 .8089905 .025985718 .80799868 .032989503 .8069916 .039993287 .80599978 .04798889 .80599978 .054992677V.31900025C.80599978 .33099366 .80400088 .34498597 .8009949 .36099244 .7969971 .3769989 .7899933 .3919983 .7799988 .40699769 .7689972 .42099 .7549896 .43299867 .7369995 .44400025 .71798709 .45399476 .69499209 .45899964 .66600039 .45899964 .6429901 .45899964 .62098696 .45498658 .60198977 .44699098 .58299258 .43899537 .56599429 .42999269 .5509949 .4189911 .5359955 .4079895 .522995 .3959961 .5119934 .3849945 .5009918 .37298585 .49299623 .36299134 .48599244 .35499574 .48298646 .3659973 .47799684 .3769989 .47200013 .3889923 .46598817 .40098573 .45799256 .4119873 .44799806 .42199708 .43699647 .43199159 .4249878 .43998719 .4099884 .44699098 .394989 .45399476 .37599183 .45700074 .35398866 .45700074 .32899476 .45700074 .30799867 .45399476 .29100038 .44699098 .272995 .43998719 .25698854 .43099977 .24398804 .42099 .23098755 .41099549 .21899414 .40098573 .20899964 .3899994 .19898987 .3789978 .18899536 .36898805 .17999268 .36099244V.46699525C.16499329 .45999146 .147995 .45298768 .12998963 .44699098 .11099243 .44099427 .09399414 .43499757 .07899475 .42999269 .06098938 .42399598 .042999269 .41799928 .023986817 .41299439V.3889923C.040985109 .3889923 .054992677 .3880005 .06599426 .3849945 .07598877 .38198854 .083999637 .37799073 .08999634 .37298585 .09498596 .36799623 .09899902 .3639984 .100997928 .35899354 .101989749 .35398866 .102996829 .34999085 .102996829 .34599305V.035995485C.102996829 .02999878 .102996829 .023986817 .101989749 .018997193 .100997928 .0129852299 .09799194 .0079956059 .09298706 .0039978029 .08799744 0 .07998657-.0030059815 .069992069-.006011963 .05899048-.009002686 .04499817-.010009766 .025985718-.010009766V-.039001466H.2539978V-.010009766C.23599243-.010009766 .22200012-.009002686 .21299744-.006011963 .20298767-.0030059815 .19599915 0 .19099427 .004989624 .18598938 .008987427 .18299866 .01399231 .18199158 .019989014 .18099976 .024993897 .17999268 .0309906 .17999268 .035995485V.32899476C.18699646 .33599855 .19499207 .34498597 .20399475 .35398866 .21199036 .36299134 .22099304 .37098695 .23199463 .3789978 .24299622 .38598634 .25498963 .3929901 .269989 .397995 .2849884 .40299989 .3019867 .40499879 .32299806 .40499879 .34799195 .40499879 .3659973 .40098573 .3789978 .3929901 .3919983 .38398744 .40098573 .37399293 .4059906 .36099244 .41099549 .34799195 .4139862 .33399964 .4149933 .31799317 .4149933 .3019867 .4149933 .2869873 .4149933 .27198792V.038986207C.4149933 .0289917 .4149933 .020996094 .4139862 .01499939 .41299439 .0079956059 .4099884 .0029907227 .40499879 0 .3999939-.0040130617 .3929901-.007003784 .38398744-.008010864 .37399293-.009002686 .3600006-.010009766 .34298707-.010009766V-.039001466H.57499697V-.010009766C.54100039-.010009766 .5189972-.006011963 .5079956 .0019989014 .49699403 .009994507 .49198915 .020996094 .49198915 .034988405V.32798768C.5009918 .33699037 .5099945 .34700013 .5189972 .35699464 .5279999 .3659973 .5389862 .375 .5499878 .3829956 .5609894 .3899994 .57398989 .3959961 .58898928 .40098573 .6029968 .4059906 .61898806 .4079895 .6369934 .4079895 .6569977 .4079895 .6729889 .4039917 .6859894 .394989 .69799807 .38598634 .70799258 .37599183 .71499636 .36299134 .7220001 .34999085 .7259979 .33699037 .72898867 .32299806 .7319946 .30799867 .73298647 .29599 .73298647 .2849884V.054992677C.73298647 .04499817 .73298647 .035995485 .7319946 .027999878 .73098757 .019989014 .7279968 .0129852299 .72299197 .0079956059 .71798709 .0019989014 .71099856-.0020141602 .70199587-.005004883 .69200137-.008010864 .6779938-.010009766 .6609955-.010009766V-.039001466H.8789978V-.010009766Z"/>
<path id="font_32_89" d="M.58299258 .3899994C.58099368 .40098573 .57699587 .4119873 .57199099 .42199708 .56599429 .43199159 .55799868 .44099427 .5469971 .44799806 .5359955 .45498658 .5209961 .45899964 .5039978 .45899964 .48599244 .45899964 .46899415 .45498658 .45298768 .44599916 .43699647 .43699647 .42199708 .42599488 .40899659 .41299439 .3959961 .3999939 .38398744 .3880005 .37399293 .375 .36299134 .3619995 .35398866 .35198976 .34700013 .34399415 .34799195 .35499574 .34599305 .36799623 .34199525 .3809967 .33699037 .3939972 .33099366 .40699769 .32199098 .4189911 .31298829 .42999269 .30299378 .43998719 .29100038 .44799806 .27799989 .45498658 .2639923 .45899964 .24899292 .45899964 .23399353 .45899964 .21899414 .45498658 .20599365 .44799806 .19299317 .44099427 .18099976 .43199159 .16999817 .42199708 .15899658 .41099549 .147995 .3999939 .13899231 .3889923 .1289978 .37799073 .11999512 .36799623 .11199951 .3600006L.1309967 .33799745C.13598633 .34298707 .14199829 .34999085 .1499939 .35899354 .1579895 .36799623 .16699219 .37799073 .1769867 .3869934 .18699646 .3959961 .19799805 .4039917 .20899964 .41099549 .21998596 .41799928 .23098755 .42099 .24299622 .42099 .25099183 .42099 .25898744 .4189911 .2669983 .4139862 .27398683 .40899659 .2809906 .4019928 .28799439 .394989 .2939911 .3869934 .29899598 .3789978 .3019867 .36999513 .30499269 .36099244 .30599977 .35198976 .30499269 .34298707 .3039856 .33399964 .2999878 .31900025 .29499818 .29599 .2889862 .272995 .28199769 .24699402 .27398683 .21998596 .2649994 .19198609 .2559967 .1639862 .24699402 .13699341 .23699951 .10998535 .22698975 .08699036 .21798706 .068984989 .20899964 .050994874 .19599915 .036987306 .18099976 .025985718 .16499329 .01499939 .1499939 .0069885256 .1349945 .0029907227 .11999512-.0020141602 .10699463-.0020141602 .09599304 .0009918213 .085998538 .0039978029 .08198547 .009994507 .083999637 .020996094 .09298706 .021987915 .099990848 .026992798 .10398865 .035995485 .10798645 .04399109 .10998535 .052993776 .10998535 .06298828 .10998535 .07199097 .10598755 .08099365 .09799194 .08999634 .09098816 .09799194 .07899475 .101989749 .06298828 .101989749 .033996583 .101989749 .019989014 .08099365 .019989014 .039993287 .019989014 .0309906 .021987915 .020996094 .025985718 .011993408 .02999878 .0029907227 .035995485-.006011963 .042999269-.013000488 .050994874-.020004273 .05999756-.026000977 .070999149-.03100586 .08099365-.036010744 .09298706-.038009645 .10699463-.038009645 .12399292-.038009645 .14199829-.035003663 .15899658-.028015137 .17599488-.022003174 .19099427-.014007568 .20599365-.0040130617 .21998596 .005996704 .23298645 .016998291 .24398804 .0289917 .25498963 .040985109 .2639923 .052993776 .269989 .06399536 .269989 .032989503 .2789917 .0079956059 .2979889-.011001587 .31698609-.030014039 .34199525-.040008546 .37399293-.040008546 .3899994-.040008546 .4059906-.035003663 .4229889-.025009156 .43998719-.015014648 .45498658-.0030059815 .46998597 .010986328 .48399354 .024993897 .49699403 .039993287 .5079956 .054992677 .5189972 .069992069 .5279999 .08198547 .5329895 .09298706L.5099945 .11199951C.5049896 .102996829 .49699403 .09298706 .48799134 .08099365 .47898866 .068984989 .46798707 .057998659 .45599366 .04699707 .44299317 .035995485 .42999269 .025985718 .41600038 .018997193 .40098573 .010986328 .38598634 .0069885256 .36999513 .0069885256 .35299684 .0069885256 .33999635 .0129852299 .33198548 .023986817 .32299806 .034988405 .31900025 .049987794 .31799317 .069992069 .31698609 .08898926 .31999208 .11299133 .32598878 .13999939 .33198548 .16699219 .34098817 .19599915 .35198976 .22898865 .36299134 .26098634 .375 .2889862 .3880005 .31298829 .40098573 .33699037 .4139862 .35699464 .4269867 .37298585 .43998719 .3880005 .45199586 .3999939 .46299745 .4079895 .47399903 .4149933 .48399354 .4189911 .49198915 .4189911 .5079956 .4189911 .5179901 .41600038 .5209961 .40899659 .5239868 .4019928 .522995 .394989 .519989 .3880005 .5130005 .3880005 .5089874 .38398744 .5059967 .37599183 .5029907 .36799623 .5009918 .3600006 .5009918 .35099793 .5009918 .34199525 .5049896 .33499146 .5119934 .32998658 .5189972 .32398988 .5269928 .32099916 .5369873 .32099916 .5479889 .32099916 .5569916 .32398988 .56599429 .32899476 .57499697 .33399964 .5799866 .34498597 .58299258 .36099244 .58399966 .36898805 .58399966 .3789978 .58299258 .3899994Z"/>
</defs>
<rect x="0" y="0" width="72.720" height="68.160" fill="#fff"/>
<g clip-path="url(#clip_1)">
<g clip-path="url(#clip_2)">
<g clip-path="url(#clip_3)">

</g>
<g clip-path="url(#clip_4)">






<g clip-path="url(#clip_5)">





</g>




</g>
<g clip-path="url(#clip_6)">
<g clip-path="url(#clip_7)">





































</g>
</g>














<g clip-path="url(#clip_11)">

</g>

<g clip-path="url(#clip_12)">


</g>

<g clip-path="url(#clip_13)">


</g>

<g clip-path="url(#clip_15)">

</g>







<g clip-path="url(#clip_17)">


</g>










































































<g clip-path="url(#clip_22)">





















</g>
<g clip-path="url(#clip_25)">



</g>


<g clip-path="url(#clip_27)">





</g>
<g clip-path="url(#clip_28)">




















































































































































































































































</g>
<g clip-path="url(#clip_30)">

</g>



















































<use data-text="0" xlink:href="#font_19_4" transform="matrix(14,0,0,-14,-22.651825,15.066895)" fill="#a8aaad"/>
<use data-text="9" xlink:href="#font_19_13" transform="matrix(14,0,0,-14,-15.539825,15.066895)" fill="#16b24f"/>
<use data-text="8" xlink:href="#font_19_12" transform="matrix(14,0,0,-14,-8.427826,15.066895)" fill="#16b24f"/>
<path transform="matrix(1,0,0,-1,-383.50395,722.3939)" stroke-width="0.5669" stroke-linecap="butt" stroke-miterlimit="4" stroke-linejoin="miter" fill="none" stroke="#2c292a" d="M419.479 667.436H415.227V671.688H419.479Z"/>
<g clip-path="url(#clip_31)">
<path transform="matrix(1,0,0,-1,14.188873,58.95935)" stroke-width="0.4049" stroke-linecap="butt" stroke-dasharray="2,1.5" stroke-miterlimit="3.864" stroke-linejoin="miter" fill="none" stroke="#2c292a" d="M0 0C-3.55 1.653-5.191 3.882-5.191 3.882M21.858 3.925C21.858 3.925 20.239 1.709 16.737 .046M26.953-.026C23.355 1.63 21.693 3.882 21.693 3.882M48.8 3.925C48.8 3.925 47.29 1.863 44.033 .225"/>
</g>
<use data-text="&#xfffd;" xlink:href="#font_26_21" transform="matrix(8,0,0,-8,14.499359,62.52002)" fill="#2c292a"/>
<use data-text="&#xfffd;" xlink:href="#font_26_3" transform="matrix(3.2,0,0,-8,18.49936,62.52002)" fill="#2c292a"/>
<use data-text="&#xfffd;" xlink:href="#font_26_68" transform="matrix(8,0,0,-8,20.099366,62.52002)" fill="#2c292a"/>
<use data-text="&#xfffd;" xlink:href="#font_26_78" transform="matrix(8,0,0,-8,24.115357,62.52002)" fill="#2c292a"/>
<use data-text="&#xfffd;" xlink:href="#font_32_89" transform="matrix(8,0,0,-8,41.043367,62.52002)" fill="#2c292a"/>
<use data-text="&#xfffd;" xlink:href="#font_26_3" transform="matrix(3.2,0,0,-8,45.845064,62.52002)" fill="#2c292a"/>
<use data-text="&#xfffd;" xlink:href="#font_26_68" transform="matrix(8,0,0,-8,47.44507,62.52002)" fill="#2c292a"/>
<use data-text="&#xfffd;" xlink:href="#font_26_78" transform="matrix(8,0,0,-8,51.46106,62.52002)" fill="#2c292a"/>
<g clip-path="url(#clip_33)">
<path transform="matrix(1,0,0,-1,37.250368,41.542299)" d="M0 0C0-.705-.57-1.275-1.275-1.275-1.979-1.275-2.551-.705-2.551 0-2.551 .705-1.979 1.275-1.275 1.275-.57 1.275 0 .705 0 0" fill="#2c292a"/>
<path transform="matrix(1,0,0,-1,62.803567,54.957498)" stroke-width="0.5669" stroke-linecap="butt" stroke-linejoin="round" fill="none" stroke="#2c292a" d="M0 0H-53.658L-32.2 42.928 0 0Z"/>
<path transform="matrix(1,0,0,-1,35.974969,54.957498)" stroke-width="0.5669" stroke-linecap="butt" stroke-linejoin="round" fill="none" stroke="#2c292a" d="M0 0V13.415M26.829 0 0 13.415-26.829 0"/>
<use data-text="&#xfffd;" xlink:href="#font_26_34" transform="matrix(8,0,0,-8,27.251069,10.039551)" fill="#2c292a"/>
<use data-text="&#xfffd;" xlink:href="#font_26_35" transform="matrix(8,0,0,-8,1.9870606,57.887514)" fill="#2c292a"/>
</g>
<use data-text="&#xfffd;" xlink:href="#font_26_48" transform="matrix(8,0,0,-8,32.974977,38.714235)" fill="#2c292a"/>
<g clip-path="url(#clip_34)">
<use data-text="&#xfffd;" xlink:href="#font_26_37" transform="matrix(8,0,0,-8,33.07437,63.953615)" fill="#2c292a"/>
<use data-text="&#xfffd;" xlink:href="#font_26_36" transform="matrix(8,0,0,-8,64.80237,57.88965)" fill="#2c292a"/>
</g>










<g clip-path="url(#clip_35)">


</g>

<g clip-path="url(#clip_36)">






</g>



























































<g clip-path="url(#clip_37)">

</g>





<g clip-path="url(#clip_39)">



</g>





<g clip-path="url(#clip_41)">




</g>







<g clip-path="url(#clip_42)">



</g>




<g clip-path="url(#clip_44)">



</g>

<g clip-path="url(#clip_45)">







</g>




<g clip-path="url(#clip_46)">

</g>











<g clip-path="url(#clip_47)">


</g>







































































<g clip-path="url(#clip_48)">





</g>

<g clip-path="url(#clip_49)">



</g>




<g clip-path="url(#clip_50)">










</g>








<g clip-path="url(#clip_52)">



</g>




























































<g clip-path="url(#clip_53)">




</g>

<g clip-path="url(#clip_54)">

</g>










<g clip-path="url(#clip_55)">




</g>






<g clip-path="url(#clip_57)">


</g>





















































































































































<g clip-path="url(#clip_58)">




</g>











<g clip-path="url(#clip_60)">

</g>



























<g clip-path="url(#clip_62)">


</g>
<g clip-path="url(#clip_63)">
<path transform="matrix(1,0,0,-1,-368.50398,-142.99976)" stroke-width="1.25" stroke-linecap="butt" stroke-miterlimit="10" stroke-linejoin="miter" fill="none" stroke="#ffffff" d="M0 0H-15M640.63 0H655.63M0-841.89H-15M640.63-841.89H655.63M8.504 8.504V23.504M8.504-850.394V-865.394M632.126 8.504V23.504M632.126-850.394V-865.394"/>
<path transform="matrix(1,0,0,-1,-368.50398,-142.99976)" stroke-width="0.5669" stroke-linecap="butt" stroke-miterlimit="10" stroke-linejoin="miter" fill="none" stroke="#231f20" d="M0 0H-15M640.63 0H655.63M0-841.89H-15M640.63-841.89H655.63M8.504 8.504V23.504M8.504-850.394V-865.394M632.126 8.504V23.504M632.126-850.394V-865.394"/>







































































</g>



































<g clip-path="url(#clip_65)">

















</g>





























<g mask="url(#mask_67)">
<g transform="matrix(.8858268,0,0,.8858268,-383.5039,-195.94281)">

</g>
</g>
</g>
</g>
</svg>
